# xmcd CD database file
#
# Track frame offsets:
#	150
#	32180
#	50365
#	83092
#	110150
#	133167
#	165412
#	187580
#	231577
#	269145
#	294742
#
# Disc length: 4138 seconds
#
# Revision: 0
# Processed by: cddbd v1.5.2PL0 Copyright (c) Steve Scherf et al.
# Submitted via: CDex 1.81
#
DISCID=a110280b
DTITLE=Guitar Crusher - Blues from the Heart
DYEAR=1990
DGENRE=Blues
TTITLE0=I Can Do Bad By Myself
TTITLE1=Bartender's Advice
TTITLE2=I Feel The Pain
TTITLE3=Cuddle Up
TTITLE4=Stop It Baby
TTITLE5=My Heart's On Strike
TTITLE6=I Can't Just Put You Down
TTITLE7=Hambone Blues
TTITLE8=I'll Catch Your Tears
TTITLE9=Broken Heart Like Mine
TTITLE10=I've Got To Know
EXTD=YEAR: 1990
EXTT0=
EXTT1=
EXTT2=
EXTT3=
EXTT4=
EXTT5=
EXTT6=
EXTT7=
EXTT8=
EXTT9=
EXTT10=
PLAYORDER=
